# xmcd
#
# Track frame offsets: 
#        200
#        8752
#        22170
#        31815
#        46640
#        60650
#        72245
#        85700
#        97725
#        110217
#        119460
#        131210
#        141467
#        154780
#
# Disc length: 2284 seconds
#
# Revision: 0
# Processed by: cddbd v1.5.1PL0 Copyright (c) Steve Scherf et al.
# Submitted via: ExactAudioCopy v0.95a5
#
DISCID=ba08ea0e
DTITLE=The Traditional Grass - Howdy Neighbor Howdy
DYEAR=1992
DGENRE=Bluegrass
TTITLE0=Howdy Neighbor Howdy
TTITLE1=Lovers' Quarrel
TTITLE2=You'll Never Be The Same
TTITLE3=My Memories Aren't Precious Anymore
TTITLE4=Pretending I Don't Care
TTITLE5=Six White Horses
TTITLE6=Let Me Walk, Lord, By Your Side
TTITLE7=The Blues are still the Blues
TTITLE8=Pretending
TTITLE9=Katy Kline
TTITLE10=The Shuffle of my Feet
TTITLE11=Dixie Breakdown
TTITLE12=Your Selfish Heart
TTITLE13=Lord, Lead Me On Home
EXTD=
EXTT0=
EXTT1=
EXTT2=
EXTT3=
EXTT4=
EXTT5=
EXTT6=
EXTT7=
EXTT8=
EXTT9=
EXTT10=
EXTT11=
EXTT12=
EXTT13=
PLAYORDER=
